<svg xmlns="http://www.w3.org/2000/svg" viewBox="0 0 40 40"><defs><style>.cls-1{fill:#00aeef;}.cls-2{fill:#ed1c24;}</style></defs><g id="Layer_2" data-name="Layer 2"><g id="Layer_1-2" data-name="Layer 1"><path class="cls-1" d="M7,12.56V36.44A3.53,3.53,0,0,1,3.5,40h0A3.53,3.53,0,0,1,0,36.44V12.56A3.53,3.53,0,0,1,3.5,9h0A3.53,3.53,0,0,1,7,12.56Z"/><circle class="cls-1" cx="3.5" cy="3.5" r="3.5"/><path class="cls-2" d="M38,22.77a10,10,0,0,1,2,6.43,9.19,9.19,0,0,1-4,8C33.34,39.07,29.47,40,24.37,40H12.85A2.83,2.83,0,0,1,10,37.2V2.8A2.83,2.83,0,0,1,12.85,0H23.21Q30.2,0,34,2.74a8.84,8.84,0,0,1,3.82,7.6,9.73,9.73,0,0,1-1.48,5.43,9.56,9.56,0,0,1-3,2.95.49.49,0,0,0,.09.88A10.11,10.11,0,0,1,38,22.77ZM15.83,5.63v10.8a1,1,0,0,0,1,1h5.83q4.5,0,6.91-1.63A5.4,5.4,0,0,0,32,11a5.38,5.38,0,0,0-2.42-4.77q-2.41-1.63-6.91-1.63H16.85A1,1,0,0,0,15.83,5.63ZM31.6,33.77a5.53,5.53,0,0,0,2.51-5q0-6.68-10-6.68H16.85a1,1,0,0,0-1,1V34.37a1,1,0,0,0,1,1h7.29Q29.09,35.37,31.6,33.77Z"/></g></g></svg>